<?xml version="1.0" encoding="UTF-8"?>
<svg id="Ebene_1" data-name="Ebene 1" xmlns="http://www.w3.org/2000/svg" viewBox="0 0 200 200">
  <rect width="200" height="200" fill="#999" stroke-width="0"/>
  <path d="M0,175c96.65,0,175-78.35,175-175H0v175Z" fill="gray" stroke-width="0"/>
  <path d="M0,125c69.04,0,125-55.96,125-125H0v125Z" fill="#666" stroke-width="0"/>
  <path d="M0,75c41.42,0,75-33.58,75-75H0v75Z" fill="#4d4d4d" stroke-width="0"/>
  <path d="M0,25c13.81,0,25-11.19,25-25H0v25Z" fill="#333" stroke-width="0"/>
  <path d="M200,25C103.35,25,25,103.35,25,200h175V25Z" fill="#b3b3b3" stroke-width="0"/>
  <path d="M200,75c-69.04,0-125,55.96-125,125h125v-125Z" fill="#ccc" stroke-width="0"/>
  <path d="M200,125c-41.42,0-75,33.58-75,75h75v-75Z" fill="#e6e6e6" stroke-width="0"/>
  <path d="M200,175c-13.81,0-25,11.19-25,25h25v-25Z" fill="#333" stroke-width="0"/>
</svg>