<?xml version="1.0" encoding="UTF-8"?>
<svg id="Ebene_2" data-name="Ebene 2" xmlns="http://www.w3.org/2000/svg" viewBox="0 0 200 200">
  <g id="production">
    <g id="arcs2">
      <rect id="c4" width="200" height="200" fill="{color4}" stroke-width="0"/>
      <g id="c3">
        <path d="M0,175c96.65,0,175-78.35,175-175H0v175Z" fill="{color3}" stroke-width="0"/>
      </g>
      <g id="c2">
        <path d="M0,125c69.04,0,125-55.96,125-125H0v125Z" fill="{color2}" stroke-width="0"/>
      </g>
      <g id="c1">
        <path d="M0,75c41.42,0,75-33.58,75-75H0v75Z" fill="{color1}" stroke-width="0"/>
      </g>
      <g id="c0">
        <path d="M0,25c13.81,0,25-11.19,25-25H0v25Z" fill="{color0}" stroke-width="0"/>
      </g>
      <g id="c5">
        <path d="M200,25C103.35,25,25,103.35,25,200h175V25Z" fill="{color5}" stroke-width="0"/>
      </g>
      <g id="c6">
        <path d="M200,75c-69.04,0-125,55.96-125,125h125v-125Z" fill="{color6}" stroke-width="0"/>
      </g>
      <g id="c7">
        <path d="M200,125c-41.42,0-75,33.58-75,75h75v-75Z" fill="{color7}" stroke-width="0"/>
      </g>
      <g id="c8">
        <path d="M200,175c-13.81,0-25,11.19-25,25h25v-25Z" fill="{color8}" stroke-width="0"/>
      </g>
    </g>
  </g>
</svg>