<?xml version="1.0" encoding="UTF-8"?>
<svg id="Ebene_1" data-name="Ebene 1" xmlns="http://www.w3.org/2000/svg" viewBox="0 0 400 400">
  <rect width="400" height="400" fill="#fff" stroke-width="0"/>
  <g>
    <path d="M0,375c207.11,0,375-167.89,375-375H0v375Z" fill="#e6e6e6" stroke-width="0"/>
    <path d="M0,325c179.49,0,325-145.51,325-325H0v325Z" fill="#ccc" stroke-width="0"/>
    <path d="M0,275c151.88,0,275-123.12,275-275H0v275Z" fill="#b3b3b3" stroke-width="0"/>
    <path d="M0,225c124.26,0,225-100.74,225-225H0v225Z" fill="#999" stroke-width="0"/>
    <path d="M0,175c96.65,0,175-78.35,175-175H0v175Z" fill="gray" stroke-width="0"/>
    <path d="M0,125c69.04,0,125-55.96,125-125H0v125Z" fill="#666" stroke-width="0"/>
    <path d="M0,75c41.42,0,75-33.58,75-75H0v75Z" fill="#4d4d4d" stroke-width="0"/>
    <path d="M0,25c13.81,0,25-11.19,25-25H0v25Z" fill="#333" stroke-width="0"/>
  </g>
  <g>
    <path d="M400,25C192.89,25,25,192.89,25,400h375V25Z" fill="#e6e6e6" stroke-width="0"/>
    <path d="M400,75c-179.49,0-325,145.51-325,325h325V75Z" fill="#ccc" stroke-width="0"/>
    <path d="M400,125c-151.88,0-275,123.12-275,275h275V125Z" fill="#b3b3b3" stroke-width="0"/>
    <path d="M400,175c-124.26,0-225,100.74-225,225h225v-225Z" fill="#999" stroke-width="0"/>
    <path d="M400,225c-96.65,0-175,78.35-175,175h175v-175Z" fill="gray" stroke-width="0"/>
    <path d="M400,275c-69.04,0-125,55.96-125,125h125v-125Z" fill="#666" stroke-width="0"/>
    <path d="M400,325c-41.42,0-75,33.58-75,75h75v-75Z" fill="#4d4d4d" stroke-width="0"/>
    <path d="M400,375c-13.81,0-25,11.19-25,25h25v-25Z" fill="#333" stroke-width="0"/>
  </g>
</svg>