<?xml version="1.0" encoding="UTF-8"?>
<svg id="Ebene_2" data-name="Ebene 2" xmlns="http://www.w3.org/2000/svg" viewBox="0 0 400 400">
  <g id="lines-4">
    <g id="lines4">
      <g id="fills">
        <rect id="c8" x="12.5" y="12.5" width="400" height="375" transform="translate(12.5 412.5) rotate(-90)" fill="{color8}" stroke-width="0"/>
        <rect id="c7" x="25" y="0" width="350" height="400" fill="{color7}" stroke-width="0"/>
        <rect id="c6" x="25" y="0" width="300" height="400" fill="{color6}" stroke-width="0"/>
        <rect id="c5" x="25" y="0" width="250" height="400" fill="{color5}" stroke-width="0"/>
        <rect id="c4" x="25" y="0" width="200" height="400" fill="{color4}" stroke-width="0"/>
        <rect id="c3" x="25" y="0" width="150" height="400" fill="{color3}" stroke-width="0"/>
        <rect id="c2" x="25" y="0" width="100" height="400" fill="{color2}" stroke-width="0"/>
        <rect id="c1" x="12.5" width="62.5" height="400" fill="{color1}" stroke-width="0"/>
        <rect id="c0" y="0" width="25" height="400" fill="{color0}" stroke-width="0"/>
        <rect id="c15" x="0" y="48.43" width="400" height="326.57" fill="{color15}" stroke-width="0"/>
        <rect id="c14" x="0" y="48.43" width="400" height="276.57" fill="{color14}" stroke-width="0"/>
        <rect id="c13" x="0" y="49.16" width="400" height="225.84" fill="{color13}" stroke-width="0"/>
        <rect id="c12" x="0" y="49.9" width="400" height="175.1" fill="{color12}" stroke-width="0"/>
        <rect id="c11" x="0" y="48.43" width="400" height="126.57" fill="{color11}" stroke-width="0"/>
        <rect id="c10" x="0" y="50" width="400" height="75" fill="{color10}" stroke-width="0"/>
        <rect id="c9" x="0" y="25" width="400" height="50" fill="{color9}" stroke-width="0"/>
      </g>
    </g>
  </g>
</svg>