<?xml version="1.0" encoding="UTF-8"?>
<svg id="Ebene_1" data-name="Ebene 1" xmlns="http://www.w3.org/2000/svg" viewBox="0 0 400 400">
  <rect x="0" y="0" width="400" height="400" fill="#fff" stroke-width="0"/>
  <rect x="0" y="25" width="400" height="350" fill="#e6e6e6" stroke-width="0"/>
  <rect x="0" y="25" width="400" height="300" fill="#b6b6b6" stroke-width="0"/>
  <rect x="0" y="25" width="400" height="250" fill="#a0a0a0" stroke-width="0"/>
  <rect x="0" y="25" width="400" height="200" fill="#8a8a8a" stroke-width="0"/>
  <rect x="0" y="25" width="400" height="150" fill="#757575" stroke-width="0"/>
  <rect x="0" y="25" width="400" height="100" fill="#5f5f5f" stroke-width="0"/>
  <rect x="0" y="0" width="400" height="75" fill="#666" stroke-width="0"/>
  <rect x="0" y="0" width="400" height="25" fill="#333" stroke-width="0"/>
  <rect x="25" y="0" width="326.57" height="400" fill="#ccc" stroke-width="0"/>
  <rect x="75" y="0" width="276.57" height="400" fill="#b6b6b6" stroke-width="0"/>
  <rect x="125" y="0" width="225.84" height="400" fill="#a0a0a0" stroke-width="0"/>
  <rect x="175" y="0" width="175.1" height="400" fill="#8a8a8a" stroke-width="0"/>
  <rect x="225" y="0" width="126.57" height="400" fill="#757575" stroke-width="0"/>
  <rect x="275" y="0" width="75" height="400" fill="#5f5f5f" stroke-width="0"/>
  <rect x="325" y="0" width="50" height="400" fill="#494949" stroke-width="0"/>
</svg>